<svg width="1280" height="800" viewBox="0 0 1280 800" fill="none" xmlns="http://www.w3.org/2000/svg">
  <rect width="1280" height="800" rx="24" fill="#09090B"/>
  <rect x="24" y="24" width="1232" height="752" rx="18" fill="#0B1220" stroke="#334155"/>
  <rect x="24" y="24" width="1232" height="52" rx="18" fill="#111827"/>
  <circle cx="56" cy="50" r="8" fill="#EF4444"/>
  <circle cx="82" cy="50" r="8" fill="#F59E0B"/>
  <circle cx="108" cy="50" r="8" fill="#10B981"/>
  <rect x="52" y="106" width="1176" height="72" rx="14" fill="#111827" stroke="#334155"/>
  <rect x="80" y="132" width="310" height="20" rx="10" fill="#E2E8F0" fill-opacity="0.9"/>
  <rect x="1038" y="124" width="160" height="36" rx="10" fill="#7C3AED"/>
  <rect x="52" y="202" width="1176" height="534" rx="14" fill="#111827" stroke="#334155"/>
  <rect x="76" y="226" width="1130" height="48" rx="10" fill="#0F172A"/>
  <rect x="98" y="242" width="162" height="16" rx="8" fill="#CBD5E1"/>
  <rect x="274" y="242" width="112" height="16" rx="8" fill="#334155"/>
  <rect x="400" y="242" width="112" height="16" rx="8" fill="#334155"/>
  <rect x="526" y="242" width="112" height="16" rx="8" fill="#334155"/>
  <rect x="76" y="294" width="1130" height="418" rx="12" fill="#0F172A"/>
  <rect x="96" y="314" width="260" height="180" rx="12" fill="url(#paint0_linear)"/>
  <rect x="96" y="504" width="186" height="14" rx="7" fill="#64748B"/>
  <rect x="96" y="528" width="228" height="12" rx="6" fill="#334155"/>
  <rect x="374" y="314" width="260" height="180" rx="12" fill="url(#paint1_linear)"/>
  <rect x="374" y="504" width="166" height="14" rx="7" fill="#64748B"/>
  <rect x="374" y="528" width="210" height="12" rx="6" fill="#334155"/>
  <rect x="652" y="314" width="260" height="180" rx="12" fill="url(#paint2_linear)"/>
  <rect x="652" y="504" width="146" height="14" rx="7" fill="#64748B"/>
  <rect x="652" y="528" width="218" height="12" rx="6" fill="#334155"/>
  <rect x="930" y="314" width="260" height="180" rx="12" fill="url(#paint3_linear)"/>
  <rect x="930" y="504" width="174" height="14" rx="7" fill="#64748B"/>
  <rect x="930" y="528" width="208" height="12" rx="6" fill="#334155"/>
  <rect x="96" y="560" width="260" height="132" rx="12" fill="url(#paint4_linear)"/>
  <rect x="374" y="560" width="260" height="132" rx="12" fill="url(#paint5_linear)"/>
  <rect x="652" y="560" width="260" height="132" rx="12" fill="url(#paint6_linear)"/>
  <rect x="930" y="560" width="260" height="132" rx="12" fill="url(#paint7_linear)"/>
  <defs>
    <linearGradient id="paint0_linear" x1="96" y1="314" x2="356" y2="494" gradientUnits="userSpaceOnUse">
      <stop stop-color="#FBBF24" stop-opacity="0.5"/>
      <stop offset="1" stop-color="#A855F7" stop-opacity="0.42"/>
    </linearGradient>
    <linearGradient id="paint1_linear" x1="374" y1="314" x2="634" y2="494" gradientUnits="userSpaceOnUse">
      <stop stop-color="#A855F7" stop-opacity="0.5"/>
      <stop offset="1" stop-color="#3B82F6" stop-opacity="0.42"/>
    </linearGradient>
    <linearGradient id="paint2_linear" x1="652" y1="314" x2="912" y2="494" gradientUnits="userSpaceOnUse">
      <stop stop-color="#3B82F6" stop-opacity="0.5"/>
      <stop offset="1" stop-color="#22D3EE" stop-opacity="0.42"/>
    </linearGradient>
    <linearGradient id="paint3_linear" x1="930" y1="314" x2="1190" y2="494" gradientUnits="userSpaceOnUse">
      <stop stop-color="#22D3EE" stop-opacity="0.5"/>
      <stop offset="1" stop-color="#34D399" stop-opacity="0.42"/>
    </linearGradient>
    <linearGradient id="paint4_linear" x1="96" y1="560" x2="356" y2="692" gradientUnits="userSpaceOnUse">
      <stop stop-color="#FBBF24" stop-opacity="0.45"/>
      <stop offset="1" stop-color="#A855F7" stop-opacity="0.35"/>
    </linearGradient>
    <linearGradient id="paint5_linear" x1="374" y1="560" x2="634" y2="692" gradientUnits="userSpaceOnUse">
      <stop stop-color="#A855F7" stop-opacity="0.45"/>
      <stop offset="1" stop-color="#3B82F6" stop-opacity="0.35"/>
    </linearGradient>
    <linearGradient id="paint6_linear" x1="652" y1="560" x2="912" y2="692" gradientUnits="userSpaceOnUse">
      <stop stop-color="#3B82F6" stop-opacity="0.45"/>
      <stop offset="1" stop-color="#22D3EE" stop-opacity="0.35"/>
    </linearGradient>
    <linearGradient id="paint7_linear" x1="930" y1="560" x2="1190" y2="692" gradientUnits="userSpaceOnUse">
      <stop stop-color="#22D3EE" stop-opacity="0.45"/>
      <stop offset="1" stop-color="#34D399" stop-opacity="0.35"/>
    </linearGradient>
  </defs>
</svg>
